<mxfile host="Electron" modified="2023-05-27T17:03:05.135Z" agent="Mozilla/5.0 (Macintosh; Intel Mac OS X 10_15_7) AppleWebKit/537.36 (KHTML, like Gecko) draw.io/21.2.1 Chrome/112.0.5615.87 Electron/24.1.2 Safari/537.36" etag="P7_C_8PSSr011S_8ID_U" version="21.2.1" type="device">
  <diagram name="Page-1" id="H1nZVYqxkzLZFgEqRADx">
    <mxGraphModel dx="3613" dy="4667" grid="1" gridSize="10" guides="1" tooltips="1" connect="1" arrows="1" fold="1" page="1" pageScale="1" pageWidth="850" pageHeight="1100" math="0" shadow="0">
      <root>
        <mxCell id="0" />
        <mxCell id="1" parent="0" />
        <mxCell id="AsBp8XiL8Dx4Y6rQVwFH-3145" value="R, W: 143, H: 119, ORDER: 14, GC: {47, 28, 20, 48, 8, 12, 19, 13, 4, 16, 6, 7, 72, 71} " style="text;html=1;strokeColor=none;fillColor=none;align=center;verticalAlign=middle;whiteSpace=wrap;rounded=0;fontSize=32;" parent="1" vertex="1">
          <mxGeometry x="50" width="1430" height="30" as="geometry" />
        </mxCell>
        <mxCell id="AsBp8XiL8Dx4Y6rQVwFH-5170" value="R, W: 143, H: 129, ORDER: 16, GC: {53, 30, 17, 16, 27, 5, 11, 13, 4, 9, 3, 35, 23, 32, 76, 67} " style="text;html=1;strokeColor=none;fillColor=none;align=center;verticalAlign=middle;whiteSpace=wrap;rounded=0;fontSize=32;" parent="1" vertex="1">
          <mxGeometry x="50" y="1320" width="1430" height="30" as="geometry" />
        </mxCell>
        <mxCell id="AsBp8XiL8Dx4Y6rQVwFH-5238" value="R, W: 143, H: 129, ORDER: 16, GC: {46, 21, 17, 27, 4, 13, 25, 32, 3, 19, 5, 16, 37, 83, 23, 60} " style="text;html=1;strokeColor=none;fillColor=none;align=center;verticalAlign=middle;whiteSpace=wrap;rounded=0;fontSize=32;" parent="1" vertex="1">
          <mxGeometry x="50" y="2760" width="1430" height="30" as="geometry" />
        </mxCell>
        <mxCell id="AsBp8XiL8Dx4Y6rQVwFH-8617" value="R, W: 143, H: 97, ORDER: 18, GC: {41, 30, 26, 46, 6, 20, 11, 7, 10, 2, 4, 3, 8, 21, 56, 15, 51, 36} " style="text;html=1;strokeColor=none;fillColor=none;align=center;verticalAlign=middle;whiteSpace=wrap;rounded=0;fontSize=32;" parent="1" vertex="1">
          <mxGeometry x="50" y="4200" width="1430" height="30" as="geometry" />
        </mxCell>
        <mxCell id="AsBp8XiL8Dx4Y6rQVwFH-19559" value="R, W: 143, H: 120, ORDER: 20, GC: {55, 19, 21, 17, 2, 48, 23, 9, 8, 1, 30, 10, 26, 22, 4, 18, 65, 46, 14, 32} " style="text;html=1;strokeColor=none;fillColor=none;align=center;verticalAlign=middle;whiteSpace=wrap;rounded=0;fontSize=32;" parent="1" vertex="1">
          <mxGeometry x="60" y="5290" width="1430" height="30" as="geometry" />
        </mxCell>
        <mxCell id="AsBp8XiL8Dx4Y6rQVwFH-19811" value="R, W: 143, H: 130, ORDER: 20, GC: {30, 16, 18, 14, 2, 41, 20, 38, 3, 35, 36, 8, 28, 44, 12, 23, 64, 45, 11, 34} " style="text;html=1;strokeColor=none;fillColor=none;align=center;verticalAlign=middle;whiteSpace=wrap;rounded=0;fontSize=32;" parent="1" vertex="1">
          <mxGeometry x="40" y="6600" width="1430" height="30" as="geometry" />
        </mxCell>
        <mxCell id="AsBp8XiL8Dx4Y6rQVwFH-23351" value="R, W: 143, H: 94, ORDER: 21, GC: {39, 23, 30, 16, 7, 27, 24, 4, 20, 3, 17, 6, 1, 5, 11, 26, 14, 55, 12, 50, 38} " style="text;html=1;strokeColor=none;fillColor=none;align=center;verticalAlign=middle;whiteSpace=wrap;rounded=0;fontSize=32;" parent="1" vertex="1">
          <mxGeometry x="50" y="8000" width="1430" height="30" as="geometry" />
        </mxCell>
        <mxCell id="AsBp8XiL8Dx4Y6rQVwFH-45297" value="R, W: 143, H: 108, ORDER: 23, GC: {53, 25, 29, 21, 4, 36, 17, 16, 9, 27, 7, 18, 5, 8, 2, 3, 19, 6, 13, 45, 55, 11, 43} " style="text;html=1;strokeColor=none;fillColor=none;align=center;verticalAlign=middle;whiteSpace=wrap;rounded=0;fontSize=32;" parent="1" vertex="1">
          <mxGeometry x="40" y="9050" width="1430" height="30" as="geometry" />
        </mxCell>
        <mxCell id="AsBp8XiL8Dx4Y6rQVwFH-47661" value="R, W: 143, H: 120, ORDER: 26, GC: {28, 22, 38, 6, 16, 34, 55, 24, 30, 23, 32, 58, 12, 11, 7, 4, 3, 17, 9, 1, 14, 13, 27, 8, 33, 25} " style="text;html=1;strokeColor=none;fillColor=none;align=center;verticalAlign=middle;whiteSpace=wrap;rounded=0;fontSize=32;" parent="1" vertex="1">
          <mxGeometry x="60" y="10220" width="1430" height="30" as="geometry" />
        </mxCell>
        <mxCell id="VvZShNx8exeqljYF3Pcv-16" value="" style="group;flipV=1;" vertex="1" connectable="0" parent="1">
          <mxGeometry x="2160" y="-450" width="2390" height="2150" as="geometry" />
        </mxCell>
        <mxCell id="VvZShNx8exeqljYF3Pcv-1" value="95" style="rounded=0;whiteSpace=wrap;html=1;fontSize=32;aspect=fixed;" vertex="1" parent="VvZShNx8exeqljYF3Pcv-16">
          <mxGeometry y="1200" width="950" height="950" as="geometry" />
        </mxCell>
        <mxCell id="VvZShNx8exeqljYF3Pcv-2" value="28" style="rounded=0;whiteSpace=wrap;html=1;fontSize=32;aspect=fixed;" vertex="1" parent="VvZShNx8exeqljYF3Pcv-16">
          <mxGeometry x="950" y="1390" width="280" height="280" as="geometry" />
        </mxCell>
        <mxCell id="VvZShNx8exeqljYF3Pcv-3" value="20" style="rounded=0;whiteSpace=wrap;html=1;fontSize=32;aspect=fixed;" vertex="1" parent="VvZShNx8exeqljYF3Pcv-16">
          <mxGeometry x="1230" y="1470" width="200" height="200" as="geometry" />
        </mxCell>
        <mxCell id="VvZShNx8exeqljYF3Pcv-4" value="96" style="rounded=0;whiteSpace=wrap;html=1;fontSize=32;aspect=fixed;" vertex="1" parent="VvZShNx8exeqljYF3Pcv-16">
          <mxGeometry x="1430" y="1190" width="960" height="960" as="geometry" />
        </mxCell>
        <mxCell id="VvZShNx8exeqljYF3Pcv-5" value="8" style="rounded=0;whiteSpace=wrap;html=1;fontSize=32;aspect=fixed;" vertex="1" parent="VvZShNx8exeqljYF3Pcv-16">
          <mxGeometry x="1230" y="1390" width="80" height="80" as="geometry" />
        </mxCell>
        <mxCell id="VvZShNx8exeqljYF3Pcv-6" value="12" style="rounded=0;whiteSpace=wrap;html=1;fontSize=32;aspect=fixed;" vertex="1" parent="VvZShNx8exeqljYF3Pcv-16">
          <mxGeometry x="1310" y="1350" width="120" height="120" as="geometry" />
        </mxCell>
        <mxCell id="VvZShNx8exeqljYF3Pcv-7" value="19" style="rounded=0;whiteSpace=wrap;html=1;fontSize=32;aspect=fixed;" vertex="1" parent="VvZShNx8exeqljYF3Pcv-16">
          <mxGeometry x="950" y="1200" width="190" height="190" as="geometry" />
        </mxCell>
        <mxCell id="VvZShNx8exeqljYF3Pcv-8" value="13" style="rounded=0;whiteSpace=wrap;html=1;fontSize=32;aspect=fixed;" vertex="1" parent="VvZShNx8exeqljYF3Pcv-16">
          <mxGeometry x="1140" y="1260" width="130" height="130" as="geometry" />
        </mxCell>
        <mxCell id="VvZShNx8exeqljYF3Pcv-9" value="4" style="rounded=0;whiteSpace=wrap;html=1;fontSize=32;aspect=fixed;" vertex="1" parent="VvZShNx8exeqljYF3Pcv-16">
          <mxGeometry x="1270" y="1350" width="40" height="40" as="geometry" />
        </mxCell>
        <mxCell id="VvZShNx8exeqljYF3Pcv-10" value="16" style="rounded=0;whiteSpace=wrap;html=1;fontSize=32;aspect=fixed;" vertex="1" parent="VvZShNx8exeqljYF3Pcv-16">
          <mxGeometry x="1270" y="1190" width="160" height="160" as="geometry" />
        </mxCell>
        <mxCell id="VvZShNx8exeqljYF3Pcv-11" value="6" style="rounded=0;whiteSpace=wrap;html=1;fontSize=32;aspect=fixed;" vertex="1" parent="VvZShNx8exeqljYF3Pcv-16">
          <mxGeometry x="1140" y="1200" width="60" height="60" as="geometry" />
        </mxCell>
        <mxCell id="VvZShNx8exeqljYF3Pcv-12" value="7" style="rounded=0;whiteSpace=wrap;html=1;fontSize=32;aspect=fixed;" vertex="1" parent="VvZShNx8exeqljYF3Pcv-16">
          <mxGeometry x="1200" y="1190" width="70" height="70" as="geometry" />
        </mxCell>
        <mxCell id="VvZShNx8exeqljYF3Pcv-13" value="120" style="rounded=0;whiteSpace=wrap;html=1;fontSize=32;aspect=fixed;" vertex="1" parent="VvZShNx8exeqljYF3Pcv-16">
          <mxGeometry width="1200" height="1200" as="geometry" />
        </mxCell>
        <mxCell id="VvZShNx8exeqljYF3Pcv-14" value="119" style="rounded=0;whiteSpace=wrap;html=1;fontSize=32;aspect=fixed;" vertex="1" parent="VvZShNx8exeqljYF3Pcv-16">
          <mxGeometry x="1200" width="1190" height="1190" as="geometry" />
        </mxCell>
        <mxCell id="VvZShNx8exeqljYF3Pcv-15" value="48" style="rounded=0;whiteSpace=wrap;html=1;fontSize=32;aspect=fixed;" vertex="1" parent="VvZShNx8exeqljYF3Pcv-16">
          <mxGeometry x="950" y="1670" width="480" height="480" as="geometry" />
        </mxCell>
        <mxCell id="VvZShNx8exeqljYF3Pcv-17" value="" style="group;flipV=1;" vertex="1" connectable="0" parent="1">
          <mxGeometry x="50" y="50" width="1430" height="1190" as="geometry" />
        </mxCell>
        <mxCell id="761dnnyQ54j-Cl0NHfQN-3146" value="47" style="rounded=0;whiteSpace=wrap;html=1;fontSize=32;" parent="VvZShNx8exeqljYF3Pcv-17" vertex="1">
          <mxGeometry y="720" width="470" height="470" as="geometry" />
        </mxCell>
        <mxCell id="761dnnyQ54j-Cl0NHfQN-3147" value="28" style="rounded=0;whiteSpace=wrap;html=1;fontSize=32;" parent="VvZShNx8exeqljYF3Pcv-17" vertex="1">
          <mxGeometry x="470" y="910" width="280" height="280" as="geometry" />
        </mxCell>
        <mxCell id="761dnnyQ54j-Cl0NHfQN-3148" value="20" style="rounded=0;whiteSpace=wrap;html=1;fontSize=32;" parent="VvZShNx8exeqljYF3Pcv-17" vertex="1">
          <mxGeometry x="750" y="990" width="200" height="200" as="geometry" />
        </mxCell>
        <mxCell id="761dnnyQ54j-Cl0NHfQN-3149" value="48" style="rounded=0;whiteSpace=wrap;html=1;fontSize=32;" parent="VvZShNx8exeqljYF3Pcv-17" vertex="1">
          <mxGeometry x="950" y="710" width="480" height="480" as="geometry" />
        </mxCell>
        <mxCell id="761dnnyQ54j-Cl0NHfQN-3150" value="8" style="rounded=0;whiteSpace=wrap;html=1;fontSize=32;" parent="VvZShNx8exeqljYF3Pcv-17" vertex="1">
          <mxGeometry x="750" y="910" width="80" height="80" as="geometry" />
        </mxCell>
        <mxCell id="761dnnyQ54j-Cl0NHfQN-3151" value="12" style="rounded=0;whiteSpace=wrap;html=1;fontSize=32;" parent="VvZShNx8exeqljYF3Pcv-17" vertex="1">
          <mxGeometry x="830" y="870" width="120" height="120" as="geometry" />
        </mxCell>
        <mxCell id="761dnnyQ54j-Cl0NHfQN-3152" value="19" style="rounded=0;whiteSpace=wrap;html=1;fontSize=32;" parent="VvZShNx8exeqljYF3Pcv-17" vertex="1">
          <mxGeometry x="470" y="720" width="190" height="190" as="geometry" />
        </mxCell>
        <mxCell id="761dnnyQ54j-Cl0NHfQN-3153" value="13" style="rounded=0;whiteSpace=wrap;html=1;fontSize=32;" parent="VvZShNx8exeqljYF3Pcv-17" vertex="1">
          <mxGeometry x="660" y="780" width="130" height="130" as="geometry" />
        </mxCell>
        <mxCell id="761dnnyQ54j-Cl0NHfQN-3154" value="4" style="rounded=0;whiteSpace=wrap;html=1;fontSize=32;" parent="VvZShNx8exeqljYF3Pcv-17" vertex="1">
          <mxGeometry x="790" y="870" width="40" height="40" as="geometry" />
        </mxCell>
        <mxCell id="761dnnyQ54j-Cl0NHfQN-3155" value="16" style="rounded=0;whiteSpace=wrap;html=1;fontSize=32;" parent="VvZShNx8exeqljYF3Pcv-17" vertex="1">
          <mxGeometry x="790" y="710" width="160" height="160" as="geometry" />
        </mxCell>
        <mxCell id="761dnnyQ54j-Cl0NHfQN-3156" value="6" style="rounded=0;whiteSpace=wrap;html=1;fontSize=32;" parent="VvZShNx8exeqljYF3Pcv-17" vertex="1">
          <mxGeometry x="660" y="720" width="60" height="60" as="geometry" />
        </mxCell>
        <mxCell id="761dnnyQ54j-Cl0NHfQN-3157" value="7" style="rounded=0;whiteSpace=wrap;html=1;fontSize=32;" parent="VvZShNx8exeqljYF3Pcv-17" vertex="1">
          <mxGeometry x="720" y="710" width="70" height="70" as="geometry" />
        </mxCell>
        <mxCell id="761dnnyQ54j-Cl0NHfQN-3158" value="72" style="rounded=0;whiteSpace=wrap;html=1;fontSize=32;" parent="VvZShNx8exeqljYF3Pcv-17" vertex="1">
          <mxGeometry width="720" height="720" as="geometry" />
        </mxCell>
        <mxCell id="761dnnyQ54j-Cl0NHfQN-3159" value="71" style="rounded=0;whiteSpace=wrap;html=1;fontSize=32;" parent="VvZShNx8exeqljYF3Pcv-17" vertex="1">
          <mxGeometry x="720" width="710" height="710" as="geometry" />
        </mxCell>
        <mxCell id="VvZShNx8exeqljYF3Pcv-18" value="" style="group;flipV=1;" vertex="1" connectable="0" parent="1">
          <mxGeometry x="50" y="1370" width="1430" height="1290" as="geometry" />
        </mxCell>
        <mxCell id="761dnnyQ54j-Cl0NHfQN-5171" value="53" style="rounded=0;whiteSpace=wrap;html=1;fontSize=32;" parent="VvZShNx8exeqljYF3Pcv-18" vertex="1">
          <mxGeometry y="760" width="530" height="530" as="geometry" />
        </mxCell>
        <mxCell id="761dnnyQ54j-Cl0NHfQN-5172" value="30" style="rounded=0;whiteSpace=wrap;html=1;fontSize=32;" parent="VvZShNx8exeqljYF3Pcv-18" vertex="1">
          <mxGeometry x="530" y="990" width="300" height="300" as="geometry" />
        </mxCell>
        <mxCell id="761dnnyQ54j-Cl0NHfQN-5173" value="17" style="rounded=0;whiteSpace=wrap;html=1;fontSize=32;" parent="VvZShNx8exeqljYF3Pcv-18" vertex="1">
          <mxGeometry x="830" y="1120" width="170" height="170" as="geometry" />
        </mxCell>
        <mxCell id="761dnnyQ54j-Cl0NHfQN-5174" value="16" style="rounded=0;whiteSpace=wrap;html=1;fontSize=32;" parent="VvZShNx8exeqljYF3Pcv-18" vertex="1">
          <mxGeometry x="1000" y="1130" width="160" height="160" as="geometry" />
        </mxCell>
        <mxCell id="761dnnyQ54j-Cl0NHfQN-5175" value="27" style="rounded=0;whiteSpace=wrap;html=1;fontSize=32;" parent="VvZShNx8exeqljYF3Pcv-18" vertex="1">
          <mxGeometry x="1160" y="1020" width="270" height="270" as="geometry" />
        </mxCell>
        <mxCell id="761dnnyQ54j-Cl0NHfQN-5176" value="5" style="rounded=0;whiteSpace=wrap;html=1;fontSize=32;" parent="VvZShNx8exeqljYF3Pcv-18" vertex="1">
          <mxGeometry x="1000" y="1080" width="50" height="50" as="geometry" />
        </mxCell>
        <mxCell id="761dnnyQ54j-Cl0NHfQN-5177" value="11" style="rounded=0;whiteSpace=wrap;html=1;fontSize=32;" parent="VvZShNx8exeqljYF3Pcv-18" vertex="1">
          <mxGeometry x="1050" y="1020" width="110" height="110" as="geometry" />
        </mxCell>
        <mxCell id="761dnnyQ54j-Cl0NHfQN-5178" value="13" style="rounded=0;whiteSpace=wrap;html=1;fontSize=32;" parent="VvZShNx8exeqljYF3Pcv-18" vertex="1">
          <mxGeometry x="830" y="990" width="130" height="130" as="geometry" />
        </mxCell>
        <mxCell id="761dnnyQ54j-Cl0NHfQN-5179" value="4" style="rounded=0;whiteSpace=wrap;html=1;fontSize=32;" parent="VvZShNx8exeqljYF3Pcv-18" vertex="1">
          <mxGeometry x="960" y="1080" width="40" height="40" as="geometry" />
        </mxCell>
        <mxCell id="761dnnyQ54j-Cl0NHfQN-5180" value="9" style="rounded=0;whiteSpace=wrap;html=1;fontSize=32;" parent="VvZShNx8exeqljYF3Pcv-18" vertex="1">
          <mxGeometry x="960" y="990" width="90" height="90" as="geometry" />
        </mxCell>
        <mxCell id="761dnnyQ54j-Cl0NHfQN-5181" value="3" style="rounded=0;whiteSpace=wrap;html=1;fontSize=32;" parent="VvZShNx8exeqljYF3Pcv-18" vertex="1">
          <mxGeometry x="1050" y="990" width="30" height="30" as="geometry" />
        </mxCell>
        <mxCell id="761dnnyQ54j-Cl0NHfQN-5182" value="35" style="rounded=0;whiteSpace=wrap;html=1;fontSize=32;" parent="VvZShNx8exeqljYF3Pcv-18" vertex="1">
          <mxGeometry x="1080" y="670" width="350" height="350" as="geometry" />
        </mxCell>
        <mxCell id="761dnnyQ54j-Cl0NHfQN-5183" value="23" style="rounded=0;whiteSpace=wrap;html=1;fontSize=32;" parent="VvZShNx8exeqljYF3Pcv-18" vertex="1">
          <mxGeometry x="530" y="760" width="230" height="230" as="geometry" />
        </mxCell>
        <mxCell id="761dnnyQ54j-Cl0NHfQN-5184" value="32" style="rounded=0;whiteSpace=wrap;html=1;fontSize=32;" parent="VvZShNx8exeqljYF3Pcv-18" vertex="1">
          <mxGeometry x="760" y="670" width="320" height="320" as="geometry" />
        </mxCell>
        <mxCell id="761dnnyQ54j-Cl0NHfQN-5185" value="76" style="rounded=0;whiteSpace=wrap;html=1;fontSize=32;" parent="VvZShNx8exeqljYF3Pcv-18" vertex="1">
          <mxGeometry width="760" height="760" as="geometry" />
        </mxCell>
        <mxCell id="761dnnyQ54j-Cl0NHfQN-5186" value="67" style="rounded=0;whiteSpace=wrap;html=1;fontSize=32;" parent="VvZShNx8exeqljYF3Pcv-18" vertex="1">
          <mxGeometry x="760" width="670" height="670" as="geometry" />
        </mxCell>
        <mxCell id="VvZShNx8exeqljYF3Pcv-19" value="" style="group;flipV=1;" vertex="1" connectable="0" parent="1">
          <mxGeometry x="50" y="2810" width="1430" height="1290" as="geometry" />
        </mxCell>
        <mxCell id="761dnnyQ54j-Cl0NHfQN-5239" value="46" style="rounded=0;whiteSpace=wrap;html=1;fontSize=32;" parent="VvZShNx8exeqljYF3Pcv-19" vertex="1">
          <mxGeometry y="830" width="460" height="460" as="geometry" />
        </mxCell>
        <mxCell id="761dnnyQ54j-Cl0NHfQN-5240" value="21" style="rounded=0;whiteSpace=wrap;html=1;fontSize=32;" parent="VvZShNx8exeqljYF3Pcv-19" vertex="1">
          <mxGeometry x="460" y="1080" width="210" height="210" as="geometry" />
        </mxCell>
        <mxCell id="761dnnyQ54j-Cl0NHfQN-5241" value="17" style="rounded=0;whiteSpace=wrap;html=1;fontSize=32;" parent="VvZShNx8exeqljYF3Pcv-19" vertex="1">
          <mxGeometry x="670" y="1120" width="170" height="170" as="geometry" />
        </mxCell>
        <mxCell id="761dnnyQ54j-Cl0NHfQN-5242" value="27" style="rounded=0;whiteSpace=wrap;html=1;fontSize=32;" parent="VvZShNx8exeqljYF3Pcv-19" vertex="1">
          <mxGeometry x="840" y="1020" width="270" height="270" as="geometry" />
        </mxCell>
        <mxCell id="761dnnyQ54j-Cl0NHfQN-5243" value="4" style="rounded=0;whiteSpace=wrap;html=1;fontSize=32;" parent="VvZShNx8exeqljYF3Pcv-19" vertex="1">
          <mxGeometry x="670" y="1080" width="40" height="40" as="geometry" />
        </mxCell>
        <mxCell id="761dnnyQ54j-Cl0NHfQN-5244" value="13" style="rounded=0;whiteSpace=wrap;html=1;fontSize=32;" parent="VvZShNx8exeqljYF3Pcv-19" vertex="1">
          <mxGeometry x="710" y="990" width="130" height="130" as="geometry" />
        </mxCell>
        <mxCell id="761dnnyQ54j-Cl0NHfQN-5245" value="25" style="rounded=0;whiteSpace=wrap;html=1;fontSize=32;" parent="VvZShNx8exeqljYF3Pcv-19" vertex="1">
          <mxGeometry x="460" y="830" width="250" height="250" as="geometry" />
        </mxCell>
        <mxCell id="761dnnyQ54j-Cl0NHfQN-5246" value="32" style="rounded=0;whiteSpace=wrap;html=1;fontSize=32;" parent="VvZShNx8exeqljYF3Pcv-19" vertex="1">
          <mxGeometry x="1110" y="970" width="320" height="320" as="geometry" />
        </mxCell>
        <mxCell id="761dnnyQ54j-Cl0NHfQN-5247" value="3" style="rounded=0;whiteSpace=wrap;html=1;fontSize=32;" parent="VvZShNx8exeqljYF3Pcv-19" vertex="1">
          <mxGeometry x="840" y="990" width="30" height="30" as="geometry" />
        </mxCell>
        <mxCell id="761dnnyQ54j-Cl0NHfQN-5248" value="19" style="rounded=0;whiteSpace=wrap;html=1;fontSize=32;" parent="VvZShNx8exeqljYF3Pcv-19" vertex="1">
          <mxGeometry x="870" y="830" width="190" height="190" as="geometry" />
        </mxCell>
        <mxCell id="761dnnyQ54j-Cl0NHfQN-5249" value="5" style="rounded=0;whiteSpace=wrap;html=1;fontSize=32;" parent="VvZShNx8exeqljYF3Pcv-19" vertex="1">
          <mxGeometry x="1060" y="970" width="50" height="50" as="geometry" />
        </mxCell>
        <mxCell id="761dnnyQ54j-Cl0NHfQN-5250" value="16" style="rounded=0;whiteSpace=wrap;html=1;fontSize=32;" parent="VvZShNx8exeqljYF3Pcv-19" vertex="1">
          <mxGeometry x="710" y="830" width="160" height="160" as="geometry" />
        </mxCell>
        <mxCell id="761dnnyQ54j-Cl0NHfQN-5251" value="37" style="rounded=0;whiteSpace=wrap;html=1;fontSize=32;" parent="VvZShNx8exeqljYF3Pcv-19" vertex="1">
          <mxGeometry x="1060" y="600" width="370" height="370" as="geometry" />
        </mxCell>
        <mxCell id="761dnnyQ54j-Cl0NHfQN-5252" value="83" style="rounded=0;whiteSpace=wrap;html=1;fontSize=32;" parent="VvZShNx8exeqljYF3Pcv-19" vertex="1">
          <mxGeometry width="830" height="830" as="geometry" />
        </mxCell>
        <mxCell id="761dnnyQ54j-Cl0NHfQN-5253" value="23" style="rounded=0;whiteSpace=wrap;html=1;fontSize=32;" parent="VvZShNx8exeqljYF3Pcv-19" vertex="1">
          <mxGeometry x="830" y="600" width="230" height="230" as="geometry" />
        </mxCell>
        <mxCell id="761dnnyQ54j-Cl0NHfQN-5254" value="60" style="rounded=0;whiteSpace=wrap;html=1;fontSize=32;" parent="VvZShNx8exeqljYF3Pcv-19" vertex="1">
          <mxGeometry x="830" width="600" height="600" as="geometry" />
        </mxCell>
        <mxCell id="VvZShNx8exeqljYF3Pcv-20" value="" style="group;flipV=1;" vertex="1" connectable="0" parent="1">
          <mxGeometry x="50" y="4250" width="1430" height="970" as="geometry" />
        </mxCell>
        <mxCell id="761dnnyQ54j-Cl0NHfQN-8618" value="41" style="rounded=0;whiteSpace=wrap;html=1;fontSize=32;" parent="VvZShNx8exeqljYF3Pcv-20" vertex="1">
          <mxGeometry y="560" width="410" height="410" as="geometry" />
        </mxCell>
        <mxCell id="761dnnyQ54j-Cl0NHfQN-8619" value="30" style="rounded=0;whiteSpace=wrap;html=1;fontSize=32;" parent="VvZShNx8exeqljYF3Pcv-20" vertex="1">
          <mxGeometry x="410" y="670" width="300" height="300" as="geometry" />
        </mxCell>
        <mxCell id="761dnnyQ54j-Cl0NHfQN-8620" value="26" style="rounded=0;whiteSpace=wrap;html=1;fontSize=32;" parent="VvZShNx8exeqljYF3Pcv-20" vertex="1">
          <mxGeometry x="710" y="710" width="260" height="260" as="geometry" />
        </mxCell>
        <mxCell id="761dnnyQ54j-Cl0NHfQN-8621" value="46" style="rounded=0;whiteSpace=wrap;html=1;fontSize=32;" parent="VvZShNx8exeqljYF3Pcv-20" vertex="1">
          <mxGeometry x="970" y="510" width="460" height="460" as="geometry" />
        </mxCell>
        <mxCell id="761dnnyQ54j-Cl0NHfQN-8622" value="6" style="rounded=0;whiteSpace=wrap;html=1;fontSize=32;" parent="VvZShNx8exeqljYF3Pcv-20" vertex="1">
          <mxGeometry x="710" y="650" width="60" height="60" as="geometry" />
        </mxCell>
        <mxCell id="761dnnyQ54j-Cl0NHfQN-8623" value="20" style="rounded=0;whiteSpace=wrap;html=1;fontSize=32;" parent="VvZShNx8exeqljYF3Pcv-20" vertex="1">
          <mxGeometry x="770" y="510" width="200" height="200" as="geometry" />
        </mxCell>
        <mxCell id="761dnnyQ54j-Cl0NHfQN-8624" value="11" style="rounded=0;whiteSpace=wrap;html=1;fontSize=32;" parent="VvZShNx8exeqljYF3Pcv-20" vertex="1">
          <mxGeometry x="410" y="560" width="110" height="110" as="geometry" />
        </mxCell>
        <mxCell id="761dnnyQ54j-Cl0NHfQN-8625" value="7" style="rounded=0;whiteSpace=wrap;html=1;fontSize=32;" parent="VvZShNx8exeqljYF3Pcv-20" vertex="1">
          <mxGeometry x="520" y="600" width="70" height="70" as="geometry" />
        </mxCell>
        <mxCell id="761dnnyQ54j-Cl0NHfQN-8626" value="10" style="rounded=0;whiteSpace=wrap;html=1;fontSize=32;" parent="VvZShNx8exeqljYF3Pcv-20" vertex="1">
          <mxGeometry x="590" y="570" width="100" height="100" as="geometry" />
        </mxCell>
        <mxCell id="761dnnyQ54j-Cl0NHfQN-8627" value="2" style="rounded=0;whiteSpace=wrap;html=1;fontSize=32;" parent="VvZShNx8exeqljYF3Pcv-20" vertex="1">
          <mxGeometry x="690" y="650" width="20" height="20" as="geometry" />
        </mxCell>
        <mxCell id="761dnnyQ54j-Cl0NHfQN-8628" value="4" style="rounded=0;whiteSpace=wrap;html=1;fontSize=32;" parent="VvZShNx8exeqljYF3Pcv-20" vertex="1">
          <mxGeometry x="520" y="560" width="40" height="40" as="geometry" />
        </mxCell>
        <mxCell id="761dnnyQ54j-Cl0NHfQN-8629" value="3" style="rounded=0;whiteSpace=wrap;html=1;fontSize=32;" parent="VvZShNx8exeqljYF3Pcv-20" vertex="1">
          <mxGeometry x="560" y="570" width="30" height="30" as="geometry" />
        </mxCell>
        <mxCell id="761dnnyQ54j-Cl0NHfQN-8630" value="8" style="rounded=0;whiteSpace=wrap;html=1;fontSize=32;" parent="VvZShNx8exeqljYF3Pcv-20" vertex="1">
          <mxGeometry x="690" y="570" width="80" height="80" as="geometry" />
        </mxCell>
        <mxCell id="761dnnyQ54j-Cl0NHfQN-8631" value="21" style="rounded=0;whiteSpace=wrap;html=1;fontSize=32;" parent="VvZShNx8exeqljYF3Pcv-20" vertex="1">
          <mxGeometry x="560" y="360" width="210" height="210" as="geometry" />
        </mxCell>
        <mxCell id="761dnnyQ54j-Cl0NHfQN-8632" value="56" style="rounded=0;whiteSpace=wrap;html=1;fontSize=32;" parent="VvZShNx8exeqljYF3Pcv-20" vertex="1">
          <mxGeometry width="560" height="560" as="geometry" />
        </mxCell>
        <mxCell id="761dnnyQ54j-Cl0NHfQN-8633" value="15" style="rounded=0;whiteSpace=wrap;html=1;fontSize=32;" parent="VvZShNx8exeqljYF3Pcv-20" vertex="1">
          <mxGeometry x="770" y="360" width="150" height="150" as="geometry" />
        </mxCell>
        <mxCell id="761dnnyQ54j-Cl0NHfQN-8634" value="51" style="rounded=0;whiteSpace=wrap;html=1;fontSize=32;" parent="VvZShNx8exeqljYF3Pcv-20" vertex="1">
          <mxGeometry x="920" width="510" height="510" as="geometry" />
        </mxCell>
        <mxCell id="761dnnyQ54j-Cl0NHfQN-8635" value="36" style="rounded=0;whiteSpace=wrap;html=1;fontSize=32;" parent="VvZShNx8exeqljYF3Pcv-20" vertex="1">
          <mxGeometry x="560" width="360" height="360" as="geometry" />
        </mxCell>
        <mxCell id="VvZShNx8exeqljYF3Pcv-21" value="" style="group;flipV=1;" vertex="1" connectable="0" parent="1">
          <mxGeometry x="60" y="5340" width="1430" height="1200" as="geometry" />
        </mxCell>
        <mxCell id="761dnnyQ54j-Cl0NHfQN-19560" value="55" style="rounded=0;whiteSpace=wrap;html=1;fontSize=32;" parent="VvZShNx8exeqljYF3Pcv-21" vertex="1">
          <mxGeometry y="650" width="550" height="550" as="geometry" />
        </mxCell>
        <mxCell id="761dnnyQ54j-Cl0NHfQN-19561" value="19" style="rounded=0;whiteSpace=wrap;html=1;fontSize=32;" parent="VvZShNx8exeqljYF3Pcv-21" vertex="1">
          <mxGeometry x="550" y="1010" width="190" height="190" as="geometry" />
        </mxCell>
        <mxCell id="761dnnyQ54j-Cl0NHfQN-19562" value="21" style="rounded=0;whiteSpace=wrap;html=1;fontSize=32;" parent="VvZShNx8exeqljYF3Pcv-21" vertex="1">
          <mxGeometry x="740" y="990" width="210" height="210" as="geometry" />
        </mxCell>
        <mxCell id="761dnnyQ54j-Cl0NHfQN-19563" value="17" style="rounded=0;whiteSpace=wrap;html=1;fontSize=32;" parent="VvZShNx8exeqljYF3Pcv-21" vertex="1">
          <mxGeometry x="550" y="840" width="170" height="170" as="geometry" />
        </mxCell>
        <mxCell id="761dnnyQ54j-Cl0NHfQN-19564" value="2" style="rounded=0;whiteSpace=wrap;html=1;fontSize=32;" parent="VvZShNx8exeqljYF3Pcv-21" vertex="1">
          <mxGeometry x="720" y="990" width="20" height="20" as="geometry" />
        </mxCell>
        <mxCell id="761dnnyQ54j-Cl0NHfQN-19565" value="48" style="rounded=0;whiteSpace=wrap;html=1;fontSize=32;" parent="VvZShNx8exeqljYF3Pcv-21" vertex="1">
          <mxGeometry x="950" y="720" width="480" height="480" as="geometry" />
        </mxCell>
        <mxCell id="761dnnyQ54j-Cl0NHfQN-19566" value="23" style="rounded=0;whiteSpace=wrap;html=1;fontSize=32;" parent="VvZShNx8exeqljYF3Pcv-21" vertex="1">
          <mxGeometry x="720" y="760" width="230" height="230" as="geometry" />
        </mxCell>
        <mxCell id="761dnnyQ54j-Cl0NHfQN-19567" value="9" style="rounded=0;whiteSpace=wrap;html=1;fontSize=32;" parent="VvZShNx8exeqljYF3Pcv-21" vertex="1">
          <mxGeometry x="550" y="750" width="90" height="90" as="geometry" />
        </mxCell>
        <mxCell id="761dnnyQ54j-Cl0NHfQN-19568" value="8" style="rounded=0;whiteSpace=wrap;html=1;fontSize=32;" parent="VvZShNx8exeqljYF3Pcv-21" vertex="1">
          <mxGeometry x="640" y="760" width="80" height="80" as="geometry" />
        </mxCell>
        <mxCell id="761dnnyQ54j-Cl0NHfQN-19569" value="1" style="rounded=0;whiteSpace=wrap;html=1;fontSize=32;" parent="VvZShNx8exeqljYF3Pcv-21" vertex="1">
          <mxGeometry x="640" y="750" width="10" height="10" as="geometry" />
        </mxCell>
        <mxCell id="761dnnyQ54j-Cl0NHfQN-19570" value="30" style="rounded=0;whiteSpace=wrap;html=1;fontSize=32;" parent="VvZShNx8exeqljYF3Pcv-21" vertex="1">
          <mxGeometry x="650" y="460" width="300" height="300" as="geometry" />
        </mxCell>
        <mxCell id="761dnnyQ54j-Cl0NHfQN-19571" value="10" style="rounded=0;whiteSpace=wrap;html=1;fontSize=32;" parent="VvZShNx8exeqljYF3Pcv-21" vertex="1">
          <mxGeometry x="550" y="650" width="100" height="100" as="geometry" />
        </mxCell>
        <mxCell id="761dnnyQ54j-Cl0NHfQN-19572" value="26" style="rounded=0;whiteSpace=wrap;html=1;fontSize=32;" parent="VvZShNx8exeqljYF3Pcv-21" vertex="1">
          <mxGeometry x="950" y="460" width="260" height="260" as="geometry" />
        </mxCell>
        <mxCell id="761dnnyQ54j-Cl0NHfQN-19573" value="22" style="rounded=0;whiteSpace=wrap;html=1;fontSize=32;" parent="VvZShNx8exeqljYF3Pcv-21" vertex="1">
          <mxGeometry x="1210" y="500" width="220" height="220" as="geometry" />
        </mxCell>
        <mxCell id="761dnnyQ54j-Cl0NHfQN-19574" value="4" style="rounded=0;whiteSpace=wrap;html=1;fontSize=32;" parent="VvZShNx8exeqljYF3Pcv-21" vertex="1">
          <mxGeometry x="1210" y="460" width="40" height="40" as="geometry" />
        </mxCell>
        <mxCell id="761dnnyQ54j-Cl0NHfQN-19575" value="18" style="rounded=0;whiteSpace=wrap;html=1;fontSize=32;" parent="VvZShNx8exeqljYF3Pcv-21" vertex="1">
          <mxGeometry x="1250" y="320" width="180" height="180" as="geometry" />
        </mxCell>
        <mxCell id="761dnnyQ54j-Cl0NHfQN-19576" value="65" style="rounded=0;whiteSpace=wrap;html=1;fontSize=32;" parent="VvZShNx8exeqljYF3Pcv-21" vertex="1">
          <mxGeometry width="650" height="650" as="geometry" />
        </mxCell>
        <mxCell id="761dnnyQ54j-Cl0NHfQN-19577" value="46" style="rounded=0;whiteSpace=wrap;html=1;fontSize=32;" parent="VvZShNx8exeqljYF3Pcv-21" vertex="1">
          <mxGeometry x="650" width="460" height="460" as="geometry" />
        </mxCell>
        <mxCell id="761dnnyQ54j-Cl0NHfQN-19578" value="14" style="rounded=0;whiteSpace=wrap;html=1;fontSize=32;" parent="VvZShNx8exeqljYF3Pcv-21" vertex="1">
          <mxGeometry x="1110" y="320" width="140" height="140" as="geometry" />
        </mxCell>
        <mxCell id="761dnnyQ54j-Cl0NHfQN-19579" value="32" style="rounded=0;whiteSpace=wrap;html=1;fontSize=32;" parent="VvZShNx8exeqljYF3Pcv-21" vertex="1">
          <mxGeometry x="1110" width="320" height="320" as="geometry" />
        </mxCell>
        <mxCell id="VvZShNx8exeqljYF3Pcv-22" value="" style="group;flipV=1;" vertex="1" connectable="0" parent="1">
          <mxGeometry x="40" y="6650" width="1430" height="1300" as="geometry" />
        </mxCell>
        <mxCell id="761dnnyQ54j-Cl0NHfQN-19812" value="30" style="rounded=0;whiteSpace=wrap;html=1;fontSize=32;fillColor=#C3ABD0;strokeColor=#9673a6;" parent="VvZShNx8exeqljYF3Pcv-22" vertex="1">
          <mxGeometry y="1000" width="300" height="300" as="geometry" />
        </mxCell>
        <mxCell id="761dnnyQ54j-Cl0NHfQN-19813" value="16" style="rounded=0;whiteSpace=wrap;html=1;fontSize=32;fillColor=#C3ABD0;strokeColor=#9673a6;" parent="VvZShNx8exeqljYF3Pcv-22" vertex="1">
          <mxGeometry x="300" y="1140" width="160" height="160" as="geometry" />
        </mxCell>
        <mxCell id="761dnnyQ54j-Cl0NHfQN-19814" value="18" style="rounded=0;whiteSpace=wrap;html=1;fontSize=32;fillColor=#C3ABD0;strokeColor=#9673a6;" parent="VvZShNx8exeqljYF3Pcv-22" vertex="1">
          <mxGeometry x="460" y="1120" width="180" height="180" as="geometry" />
        </mxCell>
        <mxCell id="761dnnyQ54j-Cl0NHfQN-19815" value="14" style="rounded=0;whiteSpace=wrap;html=1;fontSize=32;fillColor=#C3ABD0;strokeColor=#9673a6;" parent="VvZShNx8exeqljYF3Pcv-22" vertex="1">
          <mxGeometry x="300" y="1000" width="140" height="140" as="geometry" />
        </mxCell>
        <mxCell id="761dnnyQ54j-Cl0NHfQN-19816" value="2" style="rounded=0;whiteSpace=wrap;html=1;fontSize=32;fillColor=#C3ABD0;strokeColor=#9673a6;" parent="VvZShNx8exeqljYF3Pcv-22" vertex="1">
          <mxGeometry x="440" y="1120" width="20" height="20" as="geometry" />
        </mxCell>
        <mxCell id="761dnnyQ54j-Cl0NHfQN-19817" value="41" style="rounded=0;whiteSpace=wrap;html=1;fontSize=32;fillColor=#dae8fc;strokeColor=#6c8ebf;" parent="VvZShNx8exeqljYF3Pcv-22" vertex="1">
          <mxGeometry x="640" y="890" width="410" height="410" as="geometry" />
        </mxCell>
        <mxCell id="761dnnyQ54j-Cl0NHfQN-19818" value="20" style="rounded=0;whiteSpace=wrap;html=1;fontSize=32;fillColor=#C3ABD0;strokeColor=#9673a6;" parent="VvZShNx8exeqljYF3Pcv-22" vertex="1">
          <mxGeometry x="440" y="920" width="200" height="200" as="geometry" />
        </mxCell>
        <mxCell id="761dnnyQ54j-Cl0NHfQN-19819" value="38" style="rounded=0;whiteSpace=wrap;html=1;fontSize=32;fillColor=#dae8fc;strokeColor=#6c8ebf;" parent="VvZShNx8exeqljYF3Pcv-22" vertex="1">
          <mxGeometry x="1050" y="920" width="380" height="380" as="geometry" />
        </mxCell>
        <mxCell id="761dnnyQ54j-Cl0NHfQN-19820" value="3" style="rounded=0;whiteSpace=wrap;html=1;fontSize=32;fillColor=#dae8fc;strokeColor=#6c8ebf;" parent="VvZShNx8exeqljYF3Pcv-22" vertex="1">
          <mxGeometry x="1050" y="890" width="30" height="30" as="geometry" />
        </mxCell>
        <mxCell id="761dnnyQ54j-Cl0NHfQN-19821" value="35" style="rounded=0;whiteSpace=wrap;html=1;fontSize=32;fillColor=#dae8fc;strokeColor=#6c8ebf;" parent="VvZShNx8exeqljYF3Pcv-22" vertex="1">
          <mxGeometry x="1080" y="570" width="350" height="350" as="geometry" />
        </mxCell>
        <mxCell id="761dnnyQ54j-Cl0NHfQN-19822" value="36" style="rounded=0;whiteSpace=wrap;html=1;fontSize=32;fillColor=#C3ABD0;strokeColor=#9673a6;" parent="VvZShNx8exeqljYF3Pcv-22" vertex="1">
          <mxGeometry y="640" width="360" height="360" as="geometry" />
        </mxCell>
        <mxCell id="761dnnyQ54j-Cl0NHfQN-19823" value="8" style="rounded=0;whiteSpace=wrap;html=1;fontSize=32;fillColor=#C3ABD0;strokeColor=#9673a6;" parent="VvZShNx8exeqljYF3Pcv-22" vertex="1">
          <mxGeometry x="360" y="920" width="80" height="80" as="geometry" />
        </mxCell>
        <mxCell id="761dnnyQ54j-Cl0NHfQN-19824" value="28" style="rounded=0;whiteSpace=wrap;html=1;fontSize=32;fillColor=#C3ABD0;strokeColor=#9673a6;" parent="VvZShNx8exeqljYF3Pcv-22" vertex="1">
          <mxGeometry x="360" y="640" width="280" height="280" as="geometry" />
        </mxCell>
        <mxCell id="761dnnyQ54j-Cl0NHfQN-19825" value="44" style="rounded=0;whiteSpace=wrap;html=1;fontSize=32;fillColor=#dae8fc;strokeColor=#6c8ebf;" parent="VvZShNx8exeqljYF3Pcv-22" vertex="1">
          <mxGeometry x="640" y="450" width="440" height="440" as="geometry" />
        </mxCell>
        <mxCell id="761dnnyQ54j-Cl0NHfQN-19826" value="12" style="rounded=0;whiteSpace=wrap;html=1;fontSize=32;fillColor=#dae8fc;strokeColor=#6c8ebf;" parent="VvZShNx8exeqljYF3Pcv-22" vertex="1">
          <mxGeometry x="1080" y="450" width="120" height="120" as="geometry" />
        </mxCell>
        <mxCell id="761dnnyQ54j-Cl0NHfQN-19827" value="23" style="rounded=0;whiteSpace=wrap;html=1;fontSize=32;fillColor=#dae8fc;strokeColor=#6c8ebf;" parent="VvZShNx8exeqljYF3Pcv-22" vertex="1">
          <mxGeometry x="1200" y="340" width="230" height="230" as="geometry" />
        </mxCell>
        <mxCell id="761dnnyQ54j-Cl0NHfQN-19828" value="64" style="rounded=0;whiteSpace=wrap;html=1;fontSize=32;fillColor=#e1d5e7;strokeColor=#9673a6;" parent="VvZShNx8exeqljYF3Pcv-22" vertex="1">
          <mxGeometry width="640" height="640" as="geometry" />
        </mxCell>
        <mxCell id="761dnnyQ54j-Cl0NHfQN-19829" value="45" style="rounded=0;whiteSpace=wrap;html=1;fontSize=32;fillColor=#dae8fc;strokeColor=#6c8ebf;" parent="VvZShNx8exeqljYF3Pcv-22" vertex="1">
          <mxGeometry x="640" width="450" height="450" as="geometry" />
        </mxCell>
        <mxCell id="761dnnyQ54j-Cl0NHfQN-19830" value="11" style="rounded=0;whiteSpace=wrap;html=1;fontSize=32;fillColor=#dae8fc;strokeColor=#6c8ebf;" parent="VvZShNx8exeqljYF3Pcv-22" vertex="1">
          <mxGeometry x="1090" y="340" width="110" height="110" as="geometry" />
        </mxCell>
        <mxCell id="761dnnyQ54j-Cl0NHfQN-19831" value="34" style="rounded=0;whiteSpace=wrap;html=1;fontSize=32;fillColor=#dae8fc;strokeColor=#6c8ebf;" parent="VvZShNx8exeqljYF3Pcv-22" vertex="1">
          <mxGeometry x="1090" width="340" height="340" as="geometry" />
        </mxCell>
        <mxCell id="VvZShNx8exeqljYF3Pcv-23" value="" style="group;flipV=1;" vertex="1" connectable="0" parent="1">
          <mxGeometry x="50" y="8050" width="1430" height="940" as="geometry" />
        </mxCell>
        <mxCell id="761dnnyQ54j-Cl0NHfQN-23352" value="39" style="rounded=0;whiteSpace=wrap;html=1;fontSize=32;" parent="VvZShNx8exeqljYF3Pcv-23" vertex="1">
          <mxGeometry y="550" width="390" height="390" as="geometry" />
        </mxCell>
        <mxCell id="761dnnyQ54j-Cl0NHfQN-23353" value="23" style="rounded=0;whiteSpace=wrap;html=1;fontSize=32;" parent="VvZShNx8exeqljYF3Pcv-23" vertex="1">
          <mxGeometry x="390" y="710" width="230" height="230" as="geometry" />
        </mxCell>
        <mxCell id="761dnnyQ54j-Cl0NHfQN-23354" value="30" style="rounded=0;whiteSpace=wrap;html=1;fontSize=32;" parent="VvZShNx8exeqljYF3Pcv-23" vertex="1">
          <mxGeometry x="620" y="640" width="300" height="300" as="geometry" />
        </mxCell>
        <mxCell id="761dnnyQ54j-Cl0NHfQN-23355" value="16" style="rounded=0;whiteSpace=wrap;html=1;fontSize=32;" parent="VvZShNx8exeqljYF3Pcv-23" vertex="1">
          <mxGeometry x="390" y="550" width="160" height="160" as="geometry" />
        </mxCell>
        <mxCell id="761dnnyQ54j-Cl0NHfQN-23356" value="7" style="rounded=0;whiteSpace=wrap;html=1;fontSize=32;" parent="VvZShNx8exeqljYF3Pcv-23" vertex="1">
          <mxGeometry x="550" y="640" width="70" height="70" as="geometry" />
        </mxCell>
        <mxCell id="761dnnyQ54j-Cl0NHfQN-23357" value="27" style="rounded=0;whiteSpace=wrap;html=1;fontSize=32;" parent="VvZShNx8exeqljYF3Pcv-23" vertex="1">
          <mxGeometry x="920" y="670" width="270" height="270" as="geometry" />
        </mxCell>
        <mxCell id="761dnnyQ54j-Cl0NHfQN-23358" value="24" style="rounded=0;whiteSpace=wrap;html=1;fontSize=32;" parent="VvZShNx8exeqljYF3Pcv-23" vertex="1">
          <mxGeometry x="1190" y="700" width="240" height="240" as="geometry" />
        </mxCell>
        <mxCell id="761dnnyQ54j-Cl0NHfQN-23359" value="4" style="rounded=0;whiteSpace=wrap;html=1;fontSize=32;" parent="VvZShNx8exeqljYF3Pcv-23" vertex="1">
          <mxGeometry x="1190" y="660" width="40" height="40" as="geometry" />
        </mxCell>
        <mxCell id="761dnnyQ54j-Cl0NHfQN-23360" value="20" style="rounded=0;whiteSpace=wrap;html=1;fontSize=32;" parent="VvZShNx8exeqljYF3Pcv-23" vertex="1">
          <mxGeometry x="1230" y="500" width="200" height="200" as="geometry" />
        </mxCell>
        <mxCell id="761dnnyQ54j-Cl0NHfQN-23361" value="3" style="rounded=0;whiteSpace=wrap;html=1;fontSize=32;" parent="VvZShNx8exeqljYF3Pcv-23" vertex="1">
          <mxGeometry x="920" y="640" width="30" height="30" as="geometry" />
        </mxCell>
        <mxCell id="761dnnyQ54j-Cl0NHfQN-23362" value="17" style="rounded=0;whiteSpace=wrap;html=1;fontSize=32;" parent="VvZShNx8exeqljYF3Pcv-23" vertex="1">
          <mxGeometry x="950" y="500" width="170" height="170" as="geometry" />
        </mxCell>
        <mxCell id="761dnnyQ54j-Cl0NHfQN-23363" value="6" style="rounded=0;whiteSpace=wrap;html=1;fontSize=32;" parent="VvZShNx8exeqljYF3Pcv-23" vertex="1">
          <mxGeometry x="1120" y="610" width="60" height="60" as="geometry" />
        </mxCell>
        <mxCell id="761dnnyQ54j-Cl0NHfQN-23364" value="1" style="rounded=0;whiteSpace=wrap;html=1;fontSize=32;" parent="VvZShNx8exeqljYF3Pcv-23" vertex="1">
          <mxGeometry x="1180" y="660" width="10" height="10" as="geometry" />
        </mxCell>
        <mxCell id="761dnnyQ54j-Cl0NHfQN-23365" value="5" style="rounded=0;whiteSpace=wrap;html=1;fontSize=32;" parent="VvZShNx8exeqljYF3Pcv-23" vertex="1">
          <mxGeometry x="1180" y="610" width="50" height="50" as="geometry" />
        </mxCell>
        <mxCell id="761dnnyQ54j-Cl0NHfQN-23366" value="11" style="rounded=0;whiteSpace=wrap;html=1;fontSize=32;" parent="VvZShNx8exeqljYF3Pcv-23" vertex="1">
          <mxGeometry x="1120" y="500" width="110" height="110" as="geometry" />
        </mxCell>
        <mxCell id="761dnnyQ54j-Cl0NHfQN-23367" value="26" style="rounded=0;whiteSpace=wrap;html=1;fontSize=32;" parent="VvZShNx8exeqljYF3Pcv-23" vertex="1">
          <mxGeometry x="550" y="380" width="260" height="260" as="geometry" />
        </mxCell>
        <mxCell id="761dnnyQ54j-Cl0NHfQN-23368" value="14" style="rounded=0;whiteSpace=wrap;html=1;fontSize=32;" parent="VvZShNx8exeqljYF3Pcv-23" vertex="1">
          <mxGeometry x="810" y="500" width="140" height="140" as="geometry" />
        </mxCell>
        <mxCell id="761dnnyQ54j-Cl0NHfQN-23369" value="55" style="rounded=0;whiteSpace=wrap;html=1;fontSize=32;" parent="VvZShNx8exeqljYF3Pcv-23" vertex="1">
          <mxGeometry width="550" height="550" as="geometry" />
        </mxCell>
        <mxCell id="761dnnyQ54j-Cl0NHfQN-23370" value="12" style="rounded=0;whiteSpace=wrap;html=1;fontSize=32;" parent="VvZShNx8exeqljYF3Pcv-23" vertex="1">
          <mxGeometry x="810" y="380" width="120" height="120" as="geometry" />
        </mxCell>
        <mxCell id="761dnnyQ54j-Cl0NHfQN-23371" value="50" style="rounded=0;whiteSpace=wrap;html=1;fontSize=32;" parent="VvZShNx8exeqljYF3Pcv-23" vertex="1">
          <mxGeometry x="930" width="500" height="500" as="geometry" />
        </mxCell>
        <mxCell id="761dnnyQ54j-Cl0NHfQN-23372" value="38" style="rounded=0;whiteSpace=wrap;html=1;fontSize=32;" parent="VvZShNx8exeqljYF3Pcv-23" vertex="1">
          <mxGeometry x="550" width="380" height="380" as="geometry" />
        </mxCell>
        <mxCell id="VvZShNx8exeqljYF3Pcv-24" value="" style="group;flipV=1;" vertex="1" connectable="0" parent="1">
          <mxGeometry x="40" y="9100" width="1430" height="1080" as="geometry" />
        </mxCell>
        <mxCell id="761dnnyQ54j-Cl0NHfQN-45298" value="53" style="rounded=0;whiteSpace=wrap;html=1;fontSize=32;" parent="VvZShNx8exeqljYF3Pcv-24" vertex="1">
          <mxGeometry y="550" width="530" height="530" as="geometry" />
        </mxCell>
        <mxCell id="761dnnyQ54j-Cl0NHfQN-45299" value="25" style="rounded=0;whiteSpace=wrap;html=1;fontSize=32;" parent="VvZShNx8exeqljYF3Pcv-24" vertex="1">
          <mxGeometry x="530" y="830" width="250" height="250" as="geometry" />
        </mxCell>
        <mxCell id="761dnnyQ54j-Cl0NHfQN-45300" value="29" style="rounded=0;whiteSpace=wrap;html=1;fontSize=32;" parent="VvZShNx8exeqljYF3Pcv-24" vertex="1">
          <mxGeometry x="780" y="790" width="290" height="290" as="geometry" />
        </mxCell>
        <mxCell id="761dnnyQ54j-Cl0NHfQN-45301" value="21" style="rounded=0;whiteSpace=wrap;html=1;fontSize=32;" parent="VvZShNx8exeqljYF3Pcv-24" vertex="1">
          <mxGeometry x="530" y="620" width="210" height="210" as="geometry" />
        </mxCell>
        <mxCell id="761dnnyQ54j-Cl0NHfQN-45302" value="4" style="rounded=0;whiteSpace=wrap;html=1;fontSize=32;" parent="VvZShNx8exeqljYF3Pcv-24" vertex="1">
          <mxGeometry x="740" y="790" width="40" height="40" as="geometry" />
        </mxCell>
        <mxCell id="761dnnyQ54j-Cl0NHfQN-45303" value="36" style="rounded=0;whiteSpace=wrap;html=1;fontSize=32;" parent="VvZShNx8exeqljYF3Pcv-24" vertex="1">
          <mxGeometry x="1070" y="720" width="360" height="360" as="geometry" />
        </mxCell>
        <mxCell id="761dnnyQ54j-Cl0NHfQN-45304" value="17" style="rounded=0;whiteSpace=wrap;html=1;fontSize=32;" parent="VvZShNx8exeqljYF3Pcv-24" vertex="1">
          <mxGeometry x="740" y="620" width="170" height="170" as="geometry" />
        </mxCell>
        <mxCell id="761dnnyQ54j-Cl0NHfQN-45305" value="16" style="rounded=0;whiteSpace=wrap;html=1;fontSize=32;" parent="VvZShNx8exeqljYF3Pcv-24" vertex="1">
          <mxGeometry x="910" y="630" width="160" height="160" as="geometry" />
        </mxCell>
        <mxCell id="761dnnyQ54j-Cl0NHfQN-45306" value="9" style="rounded=0;whiteSpace=wrap;html=1;fontSize=32;" parent="VvZShNx8exeqljYF3Pcv-24" vertex="1">
          <mxGeometry x="1070" y="630" width="90" height="90" as="geometry" />
        </mxCell>
        <mxCell id="761dnnyQ54j-Cl0NHfQN-45307" value="27" style="rounded=0;whiteSpace=wrap;html=1;fontSize=32;" parent="VvZShNx8exeqljYF3Pcv-24" vertex="1">
          <mxGeometry x="1160" y="450" width="270" height="270" as="geometry" />
        </mxCell>
        <mxCell id="761dnnyQ54j-Cl0NHfQN-45308" value="7" style="rounded=0;whiteSpace=wrap;html=1;fontSize=32;" parent="VvZShNx8exeqljYF3Pcv-24" vertex="1">
          <mxGeometry x="910" y="560" width="70" height="70" as="geometry" />
        </mxCell>
        <mxCell id="761dnnyQ54j-Cl0NHfQN-45309" value="18" style="rounded=0;whiteSpace=wrap;html=1;fontSize=32;" parent="VvZShNx8exeqljYF3Pcv-24" vertex="1">
          <mxGeometry x="980" y="450" width="180" height="180" as="geometry" />
        </mxCell>
        <mxCell id="761dnnyQ54j-Cl0NHfQN-45310" value="5" style="rounded=0;whiteSpace=wrap;html=1;fontSize=32;" parent="VvZShNx8exeqljYF3Pcv-24" vertex="1">
          <mxGeometry x="530" y="570" width="50" height="50" as="geometry" />
        </mxCell>
        <mxCell id="761dnnyQ54j-Cl0NHfQN-45311" value="8" style="rounded=0;whiteSpace=wrap;html=1;fontSize=32;" parent="VvZShNx8exeqljYF3Pcv-24" vertex="1">
          <mxGeometry x="580" y="540" width="80" height="80" as="geometry" />
        </mxCell>
        <mxCell id="761dnnyQ54j-Cl0NHfQN-45312" value="2" style="rounded=0;whiteSpace=wrap;html=1;fontSize=32;" parent="VvZShNx8exeqljYF3Pcv-24" vertex="1">
          <mxGeometry x="530" y="550" width="20" height="20" as="geometry" />
        </mxCell>
        <mxCell id="761dnnyQ54j-Cl0NHfQN-45313" value="3" style="rounded=0;whiteSpace=wrap;html=1;fontSize=32;" parent="VvZShNx8exeqljYF3Pcv-24" vertex="1">
          <mxGeometry x="550" y="540" width="30" height="30" as="geometry" />
        </mxCell>
        <mxCell id="761dnnyQ54j-Cl0NHfQN-45314" value="19" style="rounded=0;whiteSpace=wrap;html=1;fontSize=32;" parent="VvZShNx8exeqljYF3Pcv-24" vertex="1">
          <mxGeometry x="660" y="430" width="190" height="190" as="geometry" />
        </mxCell>
        <mxCell id="761dnnyQ54j-Cl0NHfQN-45315" value="6" style="rounded=0;whiteSpace=wrap;html=1;fontSize=32;" parent="VvZShNx8exeqljYF3Pcv-24" vertex="1">
          <mxGeometry x="850" y="560" width="60" height="60" as="geometry" />
        </mxCell>
        <mxCell id="761dnnyQ54j-Cl0NHfQN-45316" value="13" style="rounded=0;whiteSpace=wrap;html=1;fontSize=32;" parent="VvZShNx8exeqljYF3Pcv-24" vertex="1">
          <mxGeometry x="850" y="430" width="130" height="130" as="geometry" />
        </mxCell>
        <mxCell id="761dnnyQ54j-Cl0NHfQN-45317" value="45" style="rounded=0;whiteSpace=wrap;html=1;fontSize=32;" parent="VvZShNx8exeqljYF3Pcv-24" vertex="1">
          <mxGeometry x="980" width="450" height="450" as="geometry" />
        </mxCell>
        <mxCell id="761dnnyQ54j-Cl0NHfQN-45318" value="55" style="rounded=0;whiteSpace=wrap;html=1;fontSize=32;" parent="VvZShNx8exeqljYF3Pcv-24" vertex="1">
          <mxGeometry width="550" height="550" as="geometry" />
        </mxCell>
        <mxCell id="761dnnyQ54j-Cl0NHfQN-45319" value="11" style="rounded=0;whiteSpace=wrap;html=1;fontSize=32;" parent="VvZShNx8exeqljYF3Pcv-24" vertex="1">
          <mxGeometry x="550" y="430" width="110" height="110" as="geometry" />
        </mxCell>
        <mxCell id="761dnnyQ54j-Cl0NHfQN-45320" value="43" style="rounded=0;whiteSpace=wrap;html=1;fontSize=32;" parent="VvZShNx8exeqljYF3Pcv-24" vertex="1">
          <mxGeometry x="550" width="430" height="430" as="geometry" />
        </mxCell>
        <mxCell id="VvZShNx8exeqljYF3Pcv-25" value="" style="group;flipV=1;" vertex="1" connectable="0" parent="1">
          <mxGeometry x="60" y="10270" width="1430" height="1200" as="geometry" />
        </mxCell>
        <mxCell id="761dnnyQ54j-Cl0NHfQN-47662" value="28" style="rounded=0;whiteSpace=wrap;html=1;fontSize=32;" parent="VvZShNx8exeqljYF3Pcv-25" vertex="1">
          <mxGeometry y="920" width="280" height="280" as="geometry" />
        </mxCell>
        <mxCell id="761dnnyQ54j-Cl0NHfQN-47663" value="22" style="rounded=0;whiteSpace=wrap;html=1;fontSize=32;" parent="VvZShNx8exeqljYF3Pcv-25" vertex="1">
          <mxGeometry x="280" y="980" width="220" height="220" as="geometry" />
        </mxCell>
        <mxCell id="761dnnyQ54j-Cl0NHfQN-47664" value="38" style="rounded=0;whiteSpace=wrap;html=1;fontSize=32;" parent="VvZShNx8exeqljYF3Pcv-25" vertex="1">
          <mxGeometry x="500" y="820" width="380" height="380" as="geometry" />
        </mxCell>
        <mxCell id="761dnnyQ54j-Cl0NHfQN-47665" value="6" style="rounded=0;whiteSpace=wrap;html=1;fontSize=32;" parent="VvZShNx8exeqljYF3Pcv-25" vertex="1">
          <mxGeometry x="280" y="920" width="60" height="60" as="geometry" />
        </mxCell>
        <mxCell id="761dnnyQ54j-Cl0NHfQN-47666" value="16" style="rounded=0;whiteSpace=wrap;html=1;fontSize=32;" parent="VvZShNx8exeqljYF3Pcv-25" vertex="1">
          <mxGeometry x="340" y="820" width="160" height="160" as="geometry" />
        </mxCell>
        <mxCell id="761dnnyQ54j-Cl0NHfQN-47667" value="34" style="rounded=0;whiteSpace=wrap;html=1;fontSize=32;" parent="VvZShNx8exeqljYF3Pcv-25" vertex="1">
          <mxGeometry y="580" width="340" height="340" as="geometry" />
        </mxCell>
        <mxCell id="761dnnyQ54j-Cl0NHfQN-47668" value="55" style="rounded=0;whiteSpace=wrap;html=1;fontSize=32;" parent="VvZShNx8exeqljYF3Pcv-25" vertex="1">
          <mxGeometry x="880" y="650" width="550" height="550" as="geometry" />
        </mxCell>
        <mxCell id="761dnnyQ54j-Cl0NHfQN-47669" value="24" style="rounded=0;whiteSpace=wrap;html=1;fontSize=32;" parent="VvZShNx8exeqljYF3Pcv-25" vertex="1">
          <mxGeometry x="340" y="580" width="240" height="240" as="geometry" />
        </mxCell>
        <mxCell id="761dnnyQ54j-Cl0NHfQN-47670" value="30" style="rounded=0;whiteSpace=wrap;html=1;fontSize=32;" parent="VvZShNx8exeqljYF3Pcv-25" vertex="1">
          <mxGeometry x="580" y="520" width="300" height="300" as="geometry" />
        </mxCell>
        <mxCell id="761dnnyQ54j-Cl0NHfQN-47671" value="23" style="rounded=0;whiteSpace=wrap;html=1;fontSize=32;" parent="VvZShNx8exeqljYF3Pcv-25" vertex="1">
          <mxGeometry x="880" y="420" width="230" height="230" as="geometry" />
        </mxCell>
        <mxCell id="761dnnyQ54j-Cl0NHfQN-47672" value="32" style="rounded=0;whiteSpace=wrap;html=1;fontSize=32;" parent="VvZShNx8exeqljYF3Pcv-25" vertex="1">
          <mxGeometry x="1110" y="330" width="320" height="320" as="geometry" />
        </mxCell>
        <mxCell id="761dnnyQ54j-Cl0NHfQN-47673" value="58" style="rounded=0;whiteSpace=wrap;html=1;fontSize=32;" parent="VvZShNx8exeqljYF3Pcv-25" vertex="1">
          <mxGeometry width="580" height="580" as="geometry" />
        </mxCell>
        <mxCell id="761dnnyQ54j-Cl0NHfQN-47674" value="12" style="rounded=0;whiteSpace=wrap;html=1;fontSize=32;" parent="VvZShNx8exeqljYF3Pcv-25" vertex="1">
          <mxGeometry x="580" y="400" width="120" height="120" as="geometry" />
        </mxCell>
        <mxCell id="761dnnyQ54j-Cl0NHfQN-47675" value="11" style="rounded=0;whiteSpace=wrap;html=1;fontSize=32;" parent="VvZShNx8exeqljYF3Pcv-25" vertex="1">
          <mxGeometry x="700" y="410" width="110" height="110" as="geometry" />
        </mxCell>
        <mxCell id="761dnnyQ54j-Cl0NHfQN-47676" value="7" style="rounded=0;whiteSpace=wrap;html=1;fontSize=32;" parent="VvZShNx8exeqljYF3Pcv-25" vertex="1">
          <mxGeometry x="810" y="450" width="70" height="70" as="geometry" />
        </mxCell>
        <mxCell id="761dnnyQ54j-Cl0NHfQN-47677" value="4" style="rounded=0;whiteSpace=wrap;html=1;fontSize=32;" parent="VvZShNx8exeqljYF3Pcv-25" vertex="1">
          <mxGeometry x="810" y="410" width="40" height="40" as="geometry" />
        </mxCell>
        <mxCell id="761dnnyQ54j-Cl0NHfQN-47678" value="3" style="rounded=0;whiteSpace=wrap;html=1;fontSize=32;" parent="VvZShNx8exeqljYF3Pcv-25" vertex="1">
          <mxGeometry x="850" y="420" width="30" height="30" as="geometry" />
        </mxCell>
        <mxCell id="761dnnyQ54j-Cl0NHfQN-47679" value="17" style="rounded=0;whiteSpace=wrap;html=1;fontSize=32;" parent="VvZShNx8exeqljYF3Pcv-25" vertex="1">
          <mxGeometry x="850" y="250" width="170" height="170" as="geometry" />
        </mxCell>
        <mxCell id="761dnnyQ54j-Cl0NHfQN-47680" value="9" style="rounded=0;whiteSpace=wrap;html=1;fontSize=32;" parent="VvZShNx8exeqljYF3Pcv-25" vertex="1">
          <mxGeometry x="1020" y="330" width="90" height="90" as="geometry" />
        </mxCell>
        <mxCell id="761dnnyQ54j-Cl0NHfQN-47681" value="1" style="rounded=0;whiteSpace=wrap;html=1;fontSize=32;" parent="VvZShNx8exeqljYF3Pcv-25" vertex="1">
          <mxGeometry x="700" y="400" width="10" height="10" as="geometry" />
        </mxCell>
        <mxCell id="761dnnyQ54j-Cl0NHfQN-47682" value="14" style="rounded=0;whiteSpace=wrap;html=1;fontSize=32;" parent="VvZShNx8exeqljYF3Pcv-25" vertex="1">
          <mxGeometry x="710" y="270" width="140" height="140" as="geometry" />
        </mxCell>
        <mxCell id="761dnnyQ54j-Cl0NHfQN-47683" value="13" style="rounded=0;whiteSpace=wrap;html=1;fontSize=32;" parent="VvZShNx8exeqljYF3Pcv-25" vertex="1">
          <mxGeometry x="580" y="270" width="130" height="130" as="geometry" />
        </mxCell>
        <mxCell id="761dnnyQ54j-Cl0NHfQN-47684" value="27" style="rounded=0;whiteSpace=wrap;html=1;fontSize=32;" parent="VvZShNx8exeqljYF3Pcv-25" vertex="1">
          <mxGeometry x="580" width="270" height="270" as="geometry" />
        </mxCell>
        <mxCell id="761dnnyQ54j-Cl0NHfQN-47685" value="8" style="rounded=0;whiteSpace=wrap;html=1;fontSize=32;" parent="VvZShNx8exeqljYF3Pcv-25" vertex="1">
          <mxGeometry x="1020" y="250" width="80" height="80" as="geometry" />
        </mxCell>
        <mxCell id="761dnnyQ54j-Cl0NHfQN-47686" value="33" style="rounded=0;whiteSpace=wrap;html=1;fontSize=32;" parent="VvZShNx8exeqljYF3Pcv-25" vertex="1">
          <mxGeometry x="1100" width="330" height="330" as="geometry" />
        </mxCell>
        <mxCell id="761dnnyQ54j-Cl0NHfQN-47687" value="25" style="rounded=0;whiteSpace=wrap;html=1;fontSize=32;" parent="VvZShNx8exeqljYF3Pcv-25" vertex="1">
          <mxGeometry x="850" width="250" height="250" as="geometry" />
        </mxCell>
      </root>
    </mxGraphModel>
  </diagram>
</mxfile>
